<svg width="32" height="32" viewBox="0 0 120 120" fill="none" xmlns="http://www.w3.org/2000/svg">
  <defs>
    <linearGradient id="skyGradient" x1="0%" y1="0%" x2="0%" y2="100%">
      <stop offset="0%" style="stop-color:#60A5FA;stop-opacity:1" />
      <stop offset="100%" style="stop-color:#3B82F6;stop-opacity:1" />
    </linearGradient>
    <linearGradient id="sunGradient" x1="0%" y1="0%" x2="100%" y2="100%">
      <stop offset="0%" style="stop-color:#FCD34D;stop-opacity:1" />
      <stop offset="100%" style="stop-color:#F59E0B;stop-opacity:1" />
    </linearGradient>
    <linearGradient id="cloudGradient" x1="0%" y1="0%" x2="0%" y2="100%">
      <stop offset="0%" style="stop-color:#FFFFFF;stop-opacity:0.95" />
      <stop offset="100%" style="stop-color:#E5E7EB;stop-opacity:0.9" />
    </linearGradient>
  </defs>
  
  <circle cx="60" cy="60" r="55" fill="url(#skyGradient)" stroke="white" stroke-width="3" opacity="0.9"/>
  <circle cx="75" cy="35" r="18" fill="url(#sunGradient)"/>
  
  <g stroke="url(#sunGradient)" stroke-width="3" stroke-linecap="round">
    <line x1="75" y1="10" x2="75" y2="15"/>
    <line x1="95" y1="35" x2="100" y2="35"/>
    <line x1="88" y1="22" x2="91" y2="19"/>
    <line x1="88" y1="48" x2="91" y2="51"/>
    <line x1="62" y1="22" x2="59" y2="19"/>
  </g>
  
  <g fill="url(#cloudGradient)" stroke="rgba(255,255,255,0.3)" stroke-width="1">
    <ellipse cx="45" cy="70" rx="25" ry="12"/>
    <circle cx="30" cy="65" r="12"/>
    <circle cx="40" cy="58" r="15"/>
    <circle cx="55" cy="60" r="13"/>
    <circle cx="65" cy="65" r="10"/>
  </g>
  
  <g fill="rgba(255,255,255,0.7)" stroke="rgba(255,255,255,0.2)" stroke-width="1">
    <ellipse cx="80" cy="80" rx="15" ry="8"/>
    <circle cx="72" cy="77" r="8"/>
    <circle cx="85" cy="75" r="9"/>
    <circle cx="92" cy="78" r="6"/>
  </g>
  
  <g fill="#3B82F6" opacity="0.6">
    <ellipse cx="35" cy="85" rx="2" ry="4"/>
    <ellipse cx="45" cy="90" rx="2" ry="4"/>
    <ellipse cx="55" cy="87" rx="2" ry="4"/>
    <ellipse cx="42" cy="95" rx="1.5" ry="3"/>
  </g>
  
  <g stroke="white" stroke-width="2" fill="none">
    <rect x="85" y="45" width="6" height="20" rx="3"/>
    <circle cx="88" cy="68" r="4" fill="white"/>
  </g>
</svg>